<svg width="2496" height="2496" viewBox="0 0 2496 2496" fill="none" xmlns="http://www.w3.org/2000/svg">
<rect width="2496" height="2496" fill="#FFF9E9"/>
<g style="mix-blend-mode:darken">
<circle cx="1745" cy="785" r="161" fill="black" fill-opacity="0.04"/>
</g>
<g style="mix-blend-mode:darken">
<circle cx="751" cy="1222" r="161" fill="black" fill-opacity="0.04"/>
</g>
<g style="mix-blend-mode:darken">
<circle cx="1745" cy="1222" r="161" fill="black" fill-opacity="0.04"/>
</g>
<g style="mix-blend-mode:darken">
<circle cx="254" cy="1222" r="161" fill="black" fill-opacity="0.04"/>
</g>
<g style="mix-blend-mode:darken">
<circle cx="2242" cy="1222" r="161" fill="black" fill-opacity="0.04"/>
</g>
<g style="mix-blend-mode:darken">
<circle cx="254" cy="1659" r="161" fill="black" fill-opacity="0.04"/>
</g>
<g style="mix-blend-mode:darken">
<circle cx="254" cy="348" r="161" fill="black" fill-opacity="0.04"/>
</g>
<g style="mix-blend-mode:darken">
<circle cx="254" cy="2096" r="161" fill="black" fill-opacity="0.04"/>
</g>
<g style="mix-blend-mode:darken">
<circle cx="751" cy="348" r="161" fill="black" fill-opacity="0.04"/>
</g>
<g style="mix-blend-mode:darken">
<circle cx="254" cy="785" r="161" fill="black" fill-opacity="0.04"/>
</g>
<g style="mix-blend-mode:darken">
<circle cx="751" cy="785" r="161" fill="black" fill-opacity="0.04"/>
</g>
<g style="mix-blend-mode:darken">
<circle cx="751" cy="2096" r="161" fill="black" fill-opacity="0.04"/>
</g>
<g style="mix-blend-mode:darken">
<circle cx="751" cy="1659" r="161" fill="black" fill-opacity="0.04"/>
</g>
<g style="mix-blend-mode:darken">
<circle cx="1248" cy="1659" r="161" fill="black" fill-opacity="0.04"/>
</g>
<g style="mix-blend-mode:darken">
<circle cx="1248" cy="348" r="161" fill="black" fill-opacity="0.04"/>
</g>
<g style="mix-blend-mode:darken">
<circle cx="1248" cy="785" r="161" fill="black" fill-opacity="0.04"/>
</g>
<g style="mix-blend-mode:darken">
<circle cx="2242" cy="2096" r="161" fill="black" fill-opacity="0.04"/>
</g>
<g style="mix-blend-mode:darken">
<circle cx="1248" cy="2096" r="161" fill="black" fill-opacity="0.04"/>
</g>
<g style="mix-blend-mode:darken">
<circle cx="2242" cy="785" r="161" fill="black" fill-opacity="0.04"/>
</g>
<g style="mix-blend-mode:darken">
<circle cx="1745" cy="1659" r="161" fill="black" fill-opacity="0.04"/>
</g>
<g style="mix-blend-mode:darken">
<circle cx="1745" cy="2096" r="161" fill="black" fill-opacity="0.04"/>
</g>
<g style="mix-blend-mode:darken">
<circle cx="1248" cy="1222" r="161" fill="black" fill-opacity="0.04"/>
</g>
<g style="mix-blend-mode:darken">
<circle cx="2242" cy="1659" r="161" fill="black" fill-opacity="0.04"/>
</g>
<g style="mix-blend-mode:darken">
<circle cx="1745" cy="348" r="161" fill="black" fill-opacity="0.04"/>
</g>
<g style="mix-blend-mode:darken">
<circle cx="2242" cy="348" r="161" fill="black" fill-opacity="0.04"/>
</g>
</svg>
