<svg width="109" height="55" viewBox="0 0 109 55" fill="none" xmlns="http://www.w3.org/2000/svg">
<path d="M100.235 49.4605L103.367 47.8985L103.367 47.8985L100.235 49.4605ZM43.3285 23.2759L42.4772 19.881L42.4772 19.881L43.3285 23.2759ZM0.96622 31.3473C-0.0271065 33.0055 0.511916 35.1551 2.17016 36.1484L29.1928 52.3356C30.8511 53.3289 33.0006 52.7899 33.9939 51.1317C34.9873 49.4734 34.4482 47.3239 32.79 46.3306L8.76984 31.9419L23.1585 7.92179C24.1518 6.26354 23.6128 4.11402 21.9545 3.12069C20.2963 2.12737 18.1467 2.66639 17.1534 4.32463L0.96622 31.3473ZM105.132 51.438L103.367 47.8985L97.1028 51.0225L98.8679 54.562L105.132 51.438ZM42.4772 19.881L3.11742 29.751L4.82005 36.5408L44.1798 26.6708L42.4772 19.881ZM103.367 47.8985C92.1607 25.427 66.8338 13.7732 42.4772 19.881L44.1798 26.6708C65.3496 21.3621 87.3627 31.4911 97.1028 51.0225L103.367 47.8985Z" fill="white"/>
</svg>
