<svg width="2485" height="2485" viewBox="0 0 2485 2485" fill="none" xmlns="http://www.w3.org/2000/svg">
<g style="mix-blend-mode:darken">
<circle cx="1827" cy="833" r="161" fill="black" fill-opacity="0.04"/>
</g>
<g style="mix-blend-mode:darken">
<circle cx="833" cy="1330" r="161" fill="black" fill-opacity="0.04"/>
</g>
<g style="mix-blend-mode:darken">
<circle cx="1827" cy="1330" r="161" fill="black" fill-opacity="0.04"/>
</g>
<g style="mix-blend-mode:darken">
<circle cx="336" cy="1330" r="161" fill="black" fill-opacity="0.04"/>
</g>
<g style="mix-blend-mode:darken">
<circle cx="2324" cy="1330" r="161" fill="black" fill-opacity="0.04"/>
</g>
<g style="mix-blend-mode:darken">
<circle cx="336" cy="1827" r="161" fill="black" fill-opacity="0.04"/>
</g>
<g style="mix-blend-mode:darken">
<circle cx="336" cy="336" r="161" fill="black" fill-opacity="0.04"/>
</g>
<g style="mix-blend-mode:darken">
<circle cx="336" cy="2324" r="161" fill="black" fill-opacity="0.04"/>
</g>
<g style="mix-blend-mode:darken">
<circle cx="833" cy="336" r="161" fill="black" fill-opacity="0.04"/>
</g>
<g style="mix-blend-mode:darken">
<circle cx="336" cy="833" r="161" fill="black" fill-opacity="0.04"/>
</g>
<g style="mix-blend-mode:darken">
<circle cx="833" cy="833" r="161" fill="black" fill-opacity="0.04"/>
</g>
<g style="mix-blend-mode:darken">
<circle cx="833" cy="2324" r="161" fill="black" fill-opacity="0.04"/>
</g>
<g style="mix-blend-mode:darken">
<circle cx="833" cy="1827" r="161" fill="black" fill-opacity="0.04"/>
</g>
<g style="mix-blend-mode:darken">
<circle cx="1330" cy="1827" r="161" fill="black" fill-opacity="0.04"/>
</g>
<g style="mix-blend-mode:darken">
<circle cx="1330" cy="336" r="161" fill="black" fill-opacity="0.04"/>
</g>
<g style="mix-blend-mode:darken">
<circle cx="1330" cy="833" r="161" fill="black" fill-opacity="0.04"/>
</g>
<g style="mix-blend-mode:darken">
<circle cx="2324" cy="2324" r="161" fill="black" fill-opacity="0.04"/>
</g>
<g style="mix-blend-mode:darken">
<circle cx="1330" cy="2324" r="161" fill="black" fill-opacity="0.04"/>
</g>
<g style="mix-blend-mode:darken">
<circle cx="2324" cy="833" r="161" fill="black" fill-opacity="0.04"/>
</g>
<g style="mix-blend-mode:darken">
<circle cx="1827" cy="1827" r="161" fill="black" fill-opacity="0.04"/>
</g>
<g style="mix-blend-mode:darken">
<circle cx="1827" cy="2324" r="161" fill="black" fill-opacity="0.04"/>
</g>
<g style="mix-blend-mode:darken">
<circle cx="1330" cy="1330" r="161" fill="black" fill-opacity="0.04"/>
</g>
<g style="mix-blend-mode:darken">
<circle cx="2324" cy="1827" r="161" fill="black" fill-opacity="0.04"/>
</g>
<g style="mix-blend-mode:darken">
<circle cx="1827" cy="336" r="161" fill="black" fill-opacity="0.04"/>
</g>
<g style="mix-blend-mode:darken">
<circle cx="2324" cy="336" r="161" fill="black" fill-opacity="0.04"/>
</g>
</svg>
