<svg width="42" height="51" viewBox="0 0 42 51" fill="none" xmlns="http://www.w3.org/2000/svg">
<rect y="36" width="42" height="15" rx="4" fill="black"/>
<rect x="2" y="35" width="38" height="4" fill="black"/>
<rect x="8" y="33" width="26" height="2" fill="#E6E965"/>
<rect x="8" y="32" width="26" height="2" rx="1" fill="#E6E965"/>
<rect x="5" y="38" width="32" height="11" fill="#E6E965"/>
<circle cx="35" cy="40" r="1" fill="#7F5555"/>
<circle cx="7" cy="47" r="1" fill="#7F5555"/>
<circle cx="7" cy="40" r="1" fill="#7F5555"/>
<circle cx="35" cy="47" r="1" fill="#7F5555"/>
<path d="M21 20L33.1244 32.75H8.87564L21 20Z" fill="#E6E965"/>
<rect x="15" y="16" width="12" height="11" fill="#E6E965"/>
<path d="M21 19L9.74167 4.75H32.2583L21 19Z" fill="#E6E965"/>
<rect x="10" y="11" width="22" height="11" rx="5.5" fill="#E6E965"/>
<rect x="10" y="9" width="22" height="8" fill="#E6E965"/>
<rect x="10" y="5" width="6" height="9" fill="#E6E965"/>
<rect x="26" y="5" width="6" height="9" fill="#E6E965"/>
<rect x="5" y="6" width="5" height="1" fill="#E6E965"/>
<rect x="32" y="6" width="6" height="1" fill="#E6E965"/>
<path d="M21 8L22.1226 11.4549H25.7553L22.8164 13.5902L23.9389 17.0451L21 14.9098L18.0611 17.0451L19.1836 13.5902L16.2447 11.4549H19.8774L21 8Z" fill="#C3B56E"/>
<rect x="5" y="6" width="1" height="10.5" fill="#E6E965"/>
<rect x="37" y="7" width="1" height="9.5" fill="#E6E965"/>
<rect x="5" y="17" width="1" height="7" rx="0.5" transform="rotate(-90 5 17)" fill="#E6E965"/>
<rect x="31" y="17" width="1" height="7" rx="0.5" transform="rotate(-90 31 17)" fill="#E6E965"/>
</svg>
