<svg width="72" height="72" viewBox="0 0 72 72" fill="none" xmlns="http://www.w3.org/2000/svg">
<mask id="path-1-outside-1_52_2" maskUnits="userSpaceOnUse" x="7" y="0" width="58" height="72" fill="black">
<rect fill="white" x="7" width="58" height="72"/>
<path fill-rule="evenodd" clip-rule="evenodd" d="M44.0141 52.6878C53.8904 49.3476 61 40.0041 61 29C61 15.1929 49.8071 4 36 4C22.1929 4 11 15.1929 11 29C11 40.0041 18.1096 49.3476 27.9859 52.6878C23.3325 54.3392 20 58.7804 20 64V68H52V64C52 58.7804 48.6675 54.3392 44.0141 52.6878Z"/>
</mask>
<path fill-rule="evenodd" clip-rule="evenodd" d="M44.0141 52.6878C53.8904 49.3476 61 40.0041 61 29C61 15.1929 49.8071 4 36 4C22.1929 4 11 15.1929 11 29C11 40.0041 18.1096 49.3476 27.9859 52.6878C23.3325 54.3392 20 58.7804 20 64V68H52V64C52 58.7804 48.6675 54.3392 44.0141 52.6878Z" fill="white"/>
<path d="M44.0141 52.6878L42.7326 48.8987L31.7976 52.597L42.6764 56.4575L44.0141 52.6878ZM27.9859 52.6878L29.3236 56.4575L40.2024 52.597L29.2674 48.8987L27.9859 52.6878ZM20 68H16V72H20V68ZM52 68V72H56V68H52ZM57 29C57 38.2372 51.0335 46.0913 42.7326 48.8987L45.2957 56.477C56.7474 52.6039 65 41.7709 65 29H57ZM36 8C47.598 8 57 17.402 57 29H65C65 12.9837 52.0163 0 36 0V8ZM15 29C15 17.402 24.402 8 36 8V0C19.9837 0 7 12.9837 7 29H15ZM29.2674 48.8987C20.9665 46.0913 15 38.2372 15 29H7C7 41.7709 15.2526 52.6039 26.7043 56.477L29.2674 48.8987ZM24 64C24 60.5265 26.2159 57.5603 29.3236 56.4575L26.6481 48.9182C20.4491 51.118 16 57.0343 16 64H24ZM24 68V64H16V68H24ZM52 64H20V72H52V64ZM48 64V68H56V64H48ZM42.6764 56.4575C45.7841 57.5603 48 60.5265 48 64H56C56 57.0343 51.5509 51.118 45.3519 48.9182L42.6764 56.4575Z" fill="black" mask="url(#path-1-outside-1_52_2)"/>
<path fill-rule="evenodd" clip-rule="evenodd" d="M30 16H26V34H30V16ZM46 16H42V34H46V16Z" fill="black"/>
</svg>
