<svg width="72" height="72" viewBox="0 0 72 72" fill="none" xmlns="http://www.w3.org/2000/svg">
<g clip-path="url(#clip0_70_17)">
<mask id="path-1-outside-1_70_17" maskUnits="userSpaceOnUse" x="14" y="0" width="58" height="72" fill="black">
<rect fill="white" x="14" width="58" height="72"/>
<path fill-rule="evenodd" clip-rule="evenodd" d="M51.0141 52.6878C60.8904 49.3476 68 40.0041 68 29C68 15.1929 56.8071 4 43 4C29.1929 4 18 15.1929 18 29C18 40.0041 25.1096 49.3476 34.9859 52.6878C30.3325 54.3392 27 58.7804 27 64V68H59V64C59 58.7804 55.6675 54.3392 51.0141 52.6878Z"/>
</mask>
<path fill-rule="evenodd" clip-rule="evenodd" d="M51.0141 52.6878C60.8904 49.3476 68 40.0041 68 29C68 15.1929 56.8071 4 43 4C29.1929 4 18 15.1929 18 29C18 40.0041 25.1096 49.3476 34.9859 52.6878C30.3325 54.3392 27 58.7804 27 64V68H59V64C59 58.7804 55.6675 54.3392 51.0141 52.6878Z" fill="#ffffff80"/>
<path d="M51.0141 52.6878L49.7326 48.8987L38.7976 52.597L49.6764 56.4575L51.0141 52.6878ZM34.9859 52.6878L36.3236 56.4575L47.2024 52.597L36.2674 48.8987L34.9859 52.6878ZM27 68H23V72H27V68ZM59 68V72H63V68H59ZM64 29C64 38.2372 58.0335 46.0913 49.7326 48.8987L52.2957 56.477C63.7474 52.6039 72 41.7709 72 29H64ZM43 8C54.598 8 64 17.402 64 29H72C72 12.9837 59.0163 0 43 0V8ZM22 29C22 17.402 31.402 8 43 8V0C26.9837 0 14 12.9837 14 29H22ZM36.2674 48.8987C27.9665 46.0913 22 38.2372 22 29H14C14 41.7709 22.2526 52.6039 33.7043 56.477L36.2674 48.8987ZM31 64C31 60.5265 33.2159 57.5603 36.3236 56.4575L33.6481 48.9182C27.4491 51.118 23 57.0343 23 64H31ZM31 68V64H23V68H31ZM59 64H27V72H59V64ZM55 64V68H63V64H55ZM49.6764 56.4575C52.7841 57.5603 55 60.5265 55 64H63C63 57.0343 58.5509 51.118 52.3519 48.9182L49.6764 56.4575Z" fill="black" mask="url(#path-1-outside-1_70_17)"/>
<mask id="path-3-outside-2_70_17" maskUnits="userSpaceOnUse" x="0" y="0" width="58" height="72" fill="black">
<rect fill="white" width="58" height="72"/>
<path fill-rule="evenodd" clip-rule="evenodd" d="M37.0141 52.6878C46.8904 49.3476 54 40.0041 54 29C54 15.1929 42.8071 4 29 4C15.1929 4 4 15.1929 4 29C4 40.0041 11.1096 49.3476 20.9859 52.6878C16.3325 54.3392 13 58.7804 13 64V68H45V64C45 58.7804 41.6675 54.3392 37.0141 52.6878Z"/>
</mask>
<path fill-rule="evenodd" clip-rule="evenodd" d="M37.0141 52.6878C46.8904 49.3476 54 40.0041 54 29C54 15.1929 42.8071 4 29 4C15.1929 4 4 15.1929 4 29C4 40.0041 11.1096 49.3476 20.9859 52.6878C16.3325 54.3392 13 58.7804 13 64V68H45V64C45 58.7804 41.6675 54.3392 37.0141 52.6878Z" fill="white"/>
<path d="M37.0141 52.6878L35.7326 48.8987L24.7976 52.597L35.6764 56.4575L37.0141 52.6878ZM20.9859 52.6878L22.3236 56.4575L33.2024 52.597L22.2674 48.8987L20.9859 52.6878ZM13 68H9V72H13V68ZM45 68V72H49V68H45ZM50 29C50 38.2372 44.0335 46.0913 35.7326 48.8987L38.2957 56.477C49.7474 52.6039 58 41.7709 58 29H50ZM29 8C40.598 8 50 17.402 50 29H58C58 12.9837 45.0163 0 29 0V8ZM8 29C8 17.402 17.402 8 29 8V0C12.9837 0 0 12.9837 0 29H8ZM22.2674 48.8987C13.9665 46.0913 8 38.2372 8 29H0C0 41.7709 8.25256 52.6039 19.7043 56.477L22.2674 48.8987ZM17 64C17 60.5265 19.2159 57.5603 22.3236 56.4575L19.6481 48.9182C13.4491 51.118 9 57.0343 9 64H17ZM17 68V64H9V68H17ZM45 64H13V72H45V64ZM41 64V68H49V64H41ZM35.6764 56.4575C38.7841 57.5603 41 60.5265 41 64H49C49 57.0343 44.5509 51.118 38.3519 48.9182L35.6764 56.4575Z" fill="black" mask="url(#path-3-outside-2_70_17)"/>
<path fill-rule="evenodd" clip-rule="evenodd" d="M23 16H19V34H23V16ZM39 16H35V34H39V16Z" fill="black"/>
</g>
<defs>
<clipPath id="clip0_70_17">
<rect width="72" height="72" fill="white"/>
</clipPath>
</defs>
</svg>
